<?xml version="1.0" standalone="no"?>
<!DOCTYPE svg PUBLIC "-//W3C//DTD SVG 20010904//EN"
 "http://www.w3.org/TR/2001/REC-SVG-20010904/DTD/svg10.dtd">
<svg version="1.0" xmlns="http://www.w3.org/2000/svg"
 width="154.000000pt" height="154.000000pt" viewBox="0 0 154.000000 154.000000"
 preserveAspectRatio="xMidYMid meet">
<metadata>
Created by potrace 1.11, written by Peter Selinger 2001-2013
</metadata>
<g transform="translate(0.000000,154.000000) scale(0.100000,-0.100000)"
fill="#000000" stroke="none">
<path d="M310 1496 c-73 -16 -114 -39 -169 -95 -55 -54 -87 -116 -101 -192 -6
-34 -9 -267 -8 -609 l3 -555 590 0 590 0 58 23 c69 28 153 107 185 173 39 82
42 132 40 709 l-3 555 -565 2 c-414 1 -580 -2 -620 -11z m1168 -593 l-3 -588
-24 -50 c-30 -60 -103 -140 -151 -165 -73 -37 -127 -40 -696 -40 l-555 0 3
588 3 587 23 50 c26 56 51 87 64 79 4 -3 7 -2 6 3 -6 19 105 107 129 102 4 -1
15 0 23 4 8 3 22 8 30 10 8 3 271 6 583 6 l568 1 -3 -587z"/>
<path d="M522 1190 c-13 -6 -29 -7 -35 -3 -7 3 -9 3 -5 -2 4 -4 -2 -19 -12
-33 -53 -66 0 -172 87 -172 l28 0 -25 -20 c-14 -11 -33 -20 -43 -20 -10 0 -16
-4 -13 -9 3 -5 -9 -16 -27 -25 -53 -26 -87 -62 -87 -93 0 -29 25 -183 35 -214
8 -25 68 -36 98 -17 22 15 22 15 23 -43 2 -100 68 -194 161 -229 97 -36 198
-18 270 48 23 22 45 38 48 36 3 -2 3 -1 0 3 -3 3 -1 11 5 18 17 21 40 129 34
162 -4 23 -2 33 6 33 7 0 10 -7 6 -15 -3 -8 -1 -14 3 -12 5 1 25 -19 45 -45
29 -38 43 -48 66 -48 42 0 59 9 75 40 19 37 11 62 -53 155 -30 44 -55 86 -55
93 0 6 -4 12 -9 12 -5 0 -6 5 -2 12 4 6 3 8 -4 4 -6 -3 -17 2 -24 13 -18 25
-65 29 -105 8 -18 -10 -33 -15 -33 -11 0 4 -7 1 -15 -6 -8 -7 -15 -9 -15 -4 0
5 -4 3 -9 -4 -4 -7 -18 -14 -29 -15 -12 -1 -22 -5 -22 -9 0 -4 -6 -8 -13 -8
-16 0 -91 126 -82 140 3 5 0 8 -7 5 -7 -2 -22 7 -32 22 -13 17 -14 24 -5 19 8
-4 3 2 -11 13 -14 12 -41 24 -61 27 l-36 6 14 40 c31 91 -53 182 -135 148z
m92 -46 c35 -36 34 -77 -3 -115 -32 -31 -45 -34 -86 -19 -34 13 -59 69 -46
104 22 57 91 73 135 30z m171 -296 c37 -57 69 -105 71 -107 2 -2 51 14 108 37
58 23 111 39 120 36 20 -8 166 -231 166 -255 0 -10 -11 -26 -24 -34 -36 -24
-59 -7 -122 91 -30 46 -56 84 -57 84 -2 0 -55 -20 -117 -45 -62 -25 -128 -45
-145 -45 -39 0 -53 15 -137 141 l-63 97 -42 -30 c-42 -29 -42 -29 -35 -76 4
-26 7 -67 7 -92 0 -42 -2 -45 -27 -48 -21 -3 -30 2 -38 20 -13 31 -39 189 -33
204 6 16 191 135 223 144 43 12 75 -15 145 -122z m-186 -70 c19 -31 19 -34 4
-58 -10 -14 -24 -40 -34 -59 l-16 -34 -6 39 c-4 22 -9 55 -12 76 -5 30 -2 39
17 52 12 9 23 16 24 16 1 0 11 -15 23 -32z m34 -100 c2 -7 -1 -24 -8 -38 -37
-74 -21 -171 37 -227 135 -130 338 -43 338 146 0 42 4 60 15 64 19 8 30 -48
21 -104 -12 -76 -49 -129 -120 -174 -42 -25 -150 -31 -198 -11 -96 41 -154
137 -145 237 7 79 45 147 60 107z m387 -23 c-14 -8 -29 -14 -35 -14 -5 0 1 6
15 14 14 8 30 14 35 14 6 0 -1 -6 -15 -14z m-327 -39 c-3 -6 -3 -8 2 -4 4 4
20 -1 35 -12 39 -28 76 -25 160 11 40 17 75 28 78 25 3 -3 -1 -6 -9 -6 -11 0
-11 -2 -1 -8 36 -23 20 -148 -22 -178 -11 -8 -16 -14 -11 -14 6 0 -9 -11 -31
-25 -41 -24 -45 -25 -152 -16 -7 1 -10 6 -6 13 4 7 3 8 -4 4 -18 -11 -78 50
-92 94 -15 45 -8 101 16 138 16 24 17 24 30 7 7 -10 11 -23 7 -29z m372 14 c3
-5 1 -10 -4 -10 -6 0 -11 5 -11 10 0 6 2 10 4 10 3 0 8 -4 11 -10z"/>
</g>
</svg>
