<svg id="ezlrr12gnl31" xmlns="http://www.w3.org/2000/svg" xmlns:xlink="http://www.w3.org/1999/xlink" viewBox="0 0 483.222656 551.430664" shape-rendering="geometricPrecision" text-rendering="geometricPrecision"><style><![CDATA[#ezlrr12gnl32_ts {animation: ezlrr12gnl32_ts__ts 3000ms linear infinite normal forwards}@keyframes ezlrr12gnl32_ts__ts { 0% {transform: translate(295.626465px,246.424805px) scale(0,0)} 10% {transform: translate(295.626465px,246.424805px) scale(0.500000,0.500000)} 20% {transform: translate(295.626465px,246.424805px) scale(1,1)} 30% {transform: translate(295.626465px,246.424805px) scale(0.500000,0.500000)} 40% {transform: translate(295.626465px,246.424805px) scale(0,0)} 50% {transform: translate(295.626465px,246.424805px) scale(0.500000,0.500000)} 60% {transform: translate(295.626465px,246.424805px) scale(1,1)} 73.333333% {transform: translate(295.626465px,246.424805px) scale(1,1)} 83.333333% {transform: translate(295.626465px,246.424805px) scale(0.500000,0.500000)} 93.333333% {transform: translate(295.626465px,246.424805px) scale(0,0)} 100% {transform: translate(295.626465px,246.424805px) scale(0,0)} }#ezlrr12gnl33_ts {animation: ezlrr12gnl33_ts__ts 3000ms linear infinite normal forwards}@keyframes ezlrr12gnl33_ts__ts { 0% {transform: translate(171.653880px,378.791113px) rotate(-0.018606deg) scale(0,0)} 10% {transform: translate(171.653880px,378.791113px) rotate(-0.018606deg) scale(0.500000,0.500000)} 20% {transform: translate(171.653880px,378.791113px) rotate(-0.018606deg) scale(1,1)} 30% {transform: translate(171.653880px,378.791113px) rotate(-0.018606deg) scale(0.500000,0.500000)} 40% {transform: translate(171.653880px,378.791113px) rotate(-0.018606deg) scale(0,0)} 50% {transform: translate(171.653880px,378.791113px) rotate(-0.018606deg) scale(0.500000,0.500000)} 60% {transform: translate(171.653880px,378.791113px) rotate(-0.018606deg) scale(1,1)} 73.333333% {transform: translate(171.653880px,378.791113px) rotate(-0.018606deg) scale(1,1)} 83.333333% {transform: translate(171.653880px,378.791113px) rotate(-0.018606deg) scale(0.500000,0.500000)} 93.333333% {transform: translate(171.653880px,378.791113px) rotate(-0.018606deg) scale(0,0)} 100% {transform: translate(171.653880px,378.791113px) rotate(-0.018606deg) scale(0,0)} }]]></style><defs><filter id="ezlrr12gnl32-filter" x="-400%" width="600%" y="-400%" height="600%"><feComponentTransfer id="ezlrr12gnl32-filter-brightness-0" result="result"><feFuncR id="ezlrr12gnl32-filter-brightness-0-R" type="linear" slope="1"/><feFuncG id="ezlrr12gnl32-filter-brightness-0-G" type="linear" slope="1"/><feFuncB id="ezlrr12gnl32-filter-brightness-0-B" type="linear" slope="1"/></feComponentTransfer></filter></defs><g id="ezlrr12gnl32_ts" transform="translate(295.626465,246.424805) scale(0,0)"><path id="ezlrr12gnl32" d="M161.988281,98.124023C186.951172,95.819336,206.345703,74.312988,206.345703,49.158203C206.345703,22.083008,184.262695,0,157.187500,0C130.112305,0,108.030273,22.083008,108.030273,49.158203C108.030273,57.415039,110.333984,65.863770,114.174805,72.968750L131.690430,319.435547L312.086914,319.484375L386.078125,492.849609L483.222656,454.751953L468.179687,418.931641L413.813477,438.556641L342.222656,273.276367L174.493164,274.403320L172.190430,243.190430Q311.341199,243.190430,311.341199,243.190430Q311.341199,243.190430,312.086914,197.006348L167.558594,197.006348L161.988281,98.124023Z" transform="translate(-295.626465,-246.424805)" clip-rule="evenodd" filter="url(#ezlrr12gnl32-filter)" fill="rgb(11,0,0)" stroke="none" stroke-width="1" stroke-linecap="round"/></g><g id="ezlrr12gnl33_ts" transform="translate(171.653880,378.791113) rotate(-0.018606) scale(0,0)"><path id="ezlrr12gnl33" d="M343.419922,451.590820C312.972656,511.778320,249.245117,551.430664,181.269531,551.430664C81.429688,551.430664,0,470.000977,0,370.161133C0,300.060547,42.485352,234.917481,105.881836,206.040039L109.984375,259.577637C72.487305,283.206055,49.372070,325.839844,49.372070,370.528320C49.372070,442.955078,108.443359,502.025391,180.869141,502.025391C247.130859,502.025391,303.633789,451.173828,311.338867,385.938477L343.419922,451.590820Z" transform="translate(-171.653861,-378.791095)" clip-rule="evenodd" fill="rgb(11,0,0)" stroke="none" stroke-width="1"/></g></svg>